<svg width="196" height="46" viewBox="0 0 196 46" fill="none" xmlns="http://www.w3.org/2000/svg">
<path d="M120.927 13.1926C122.501 12.3837 124.285 11.9287 126.177 11.9287H126.18V1.69727H126.177C122.728 1.69727 119.466 2.49893 116.567 3.93134C113.861 5.26745 111.475 7.14763 109.549 9.42986C109.48 9.348 109.41 9.26375 109.338 9.1843C105.351 4.59819 99.4744 1.69727 92.9214 1.69727C80.9133 1.69727 71.1777 11.4328 71.1777 23.4434C71.1777 35.4515 80.9133 45.1895 92.9214 45.1895C99.3107 45.1895 105.057 42.433 109.037 38.0443C108.964 37.9624 108.895 37.8806 108.825 37.7988C106.254 34.751 104.506 30.9858 103.923 26.845C102.474 31.5419 98.0974 34.9556 92.9214 34.9556C86.5635 34.9556 81.4092 29.8013 81.4092 23.4434C81.4092 17.0854 86.5635 11.9312 92.9214 11.9312C98.1816 11.9312 102.614 15.4556 103.991 20.2728C104.28 21.2791 104.434 22.3432 104.434 23.4434C104.434 28.7806 106.357 33.67 109.549 37.4569C113.536 42.185 119.506 45.1895 126.177 45.1895H126.18V34.9508H126.177C119.819 34.9508 114.665 29.7965 114.665 23.4386C114.665 18.9752 117.21 15.1017 120.927 13.1926Z" fill="url(#paint0_linear_37_2117)"/>
<path d="M109.036 38.0395C105.579 41.8528 100.789 44.4335 95.4033 45.0426L92.0161 34.9146C92.3146 34.9387 92.618 34.9508 92.9213 34.9508C98.0972 34.9508 102.471 31.5395 103.923 26.8402C104.506 30.981 106.254 34.7461 108.825 37.7939C108.894 37.8758 108.962 37.9576 109.036 38.0395Z" fill="url(#paint1_linear_37_2117)"/>
<path d="M0 34.5944V33.4413L22.7187 1.49741H10.1496C8.19 1.53593 6.63241 2.78537 5.47926 5.24574L3.23074 10.4361H2.07759L2.59759 0H28.2557V1.21093L6.17019 33.097H20.4124C23.3711 33.0585 25.2561 31.4239 26.0626 28.1956L27.2735 22.6609H28.5422L28.4267 34.5969H0V34.5944Z" fill="black"/>
<path d="M53.8538 30.6752C51.8942 33.6724 48.8368 35.1722 44.6864 35.1722C42.072 35.1722 39.7464 34.5006 37.7097 33.1548C34.2888 30.8485 32.5771 27.3121 32.5771 22.5454C32.5771 19.9309 33.114 17.5861 34.1925 15.511C36.2677 11.5147 39.7079 9.5141 44.5131 9.5141C46.9734 9.5141 49.1449 10.0726 51.0275 11.1873C53.6805 12.7256 55.007 14.8008 55.007 17.4152C55.007 18.838 54.487 19.9334 53.4494 20.7013C52.1036 21.6619 49.0871 22.1048 44.3975 22.0278L37.4786 21.9123C37.5172 23.5276 37.6905 25.0058 37.9986 26.3515C39.0362 31.1567 41.5736 33.5593 45.6084 33.5593C45.9551 33.5593 46.3186 33.54 46.7038 33.5015C49.701 33.1187 51.8725 31.4648 53.2183 28.5422L54.6603 29.0622C54.4292 29.5991 54.1596 30.1359 53.8538 30.6752ZM41.8023 11.6471C39.1109 12.9928 37.6688 15.8769 37.4786 20.2969L43.591 20.4702C45.3581 20.5087 46.7231 20.4317 47.6836 20.2391C49.5277 19.8154 50.4521 18.6454 50.4521 16.7219C50.4521 15.8769 50.2981 15.0897 49.9899 14.3578C49.1064 12.09 47.3177 10.9561 44.6286 10.9561C43.6271 10.9561 42.6859 11.1873 41.8023 11.6471Z" fill="black"/>
<path d="M72.2461 33.2126C72.8239 33.2897 73.1104 33.7519 73.1104 34.5969H58.8682V33.1548C60.1754 33.1548 61.1167 33.0586 61.6945 32.866C62.6935 32.5193 63.1943 31.4624 63.1943 29.6954V11.5339H58.8706V10.0919H67.2315L67.4626 15.7998C67.9609 14.6467 68.635 13.6091 69.48 12.6871C71.2856 10.7274 73.3439 9.74762 75.6502 9.74762C75.9969 9.74762 76.3604 9.78614 76.7456 9.86318C78.5126 10.2484 79.3985 11.3052 79.3985 13.0337C79.3985 13.2648 79.36 13.496 79.283 13.7247C78.9748 14.8393 78.2454 15.3978 77.0922 15.3978C76.8611 15.3978 76.63 15.3593 76.4013 15.2822C75.8621 15.1282 75.2867 14.5143 74.6728 13.4382C74.1335 12.4776 73.5389 11.9961 72.8865 11.9961C72.3087 12.0347 71.5985 12.4584 70.7535 13.2648C68.6013 15.3785 67.5252 18.1856 67.5252 21.6835V33.1572H71.678C71.8995 33.1548 72.092 33.1741 72.2461 33.2126Z" fill="black"/>
<path d="M143.995 29.9818C143.648 30.7883 143.13 31.5587 142.437 32.2881C140.514 34.2116 138.149 35.1722 135.345 35.1722C134.192 35.1722 133.096 34.9603 132.059 34.539C129.483 33.4629 128.195 31.4648 128.195 28.5422C128.195 27.6972 128.31 26.91 128.541 26.1781C129.849 22.4105 135.017 20.5279 144.052 20.5279V16.8952C143.937 13.1661 142.074 11.1872 138.46 10.9561C136.922 10.9561 135.788 11.4376 135.058 12.3981C134.866 12.6678 134.5 13.5127 133.963 14.9355C133.539 16.0502 132.887 16.6087 132.003 16.6087C131.811 16.6087 131.618 16.5894 131.426 16.5509C130.311 16.3583 129.752 15.6674 129.752 14.4757C129.752 13.8233 129.984 13.1685 130.443 12.5161C131.905 10.5179 134.786 9.51886 139.093 9.51886C139.44 9.51886 139.784 9.51886 140.131 9.51886C145.627 9.82701 148.376 12.7279 148.376 18.2265V30.3935C148.415 32.317 148.932 33.3161 149.934 33.3907C151.164 33.3522 151.913 31.9294 152.182 29.1248L153.682 29.1826C153.682 29.3752 153.663 29.587 153.624 29.8157C153.316 33.3907 151.684 35.177 148.723 35.177C146.031 35.1337 144.454 33.4052 143.995 29.9818ZM139.842 32.2881C142.071 31.212 143.475 29.3487 144.05 26.6957V22.0831C141.053 22.1216 138.763 22.3142 137.189 22.6609C134.228 23.3518 132.75 24.9865 132.75 27.5624C132.75 28.2172 132.807 28.8118 132.923 29.3487C133.46 31.6935 134.902 32.8659 137.247 32.8659C138.094 32.8659 138.958 32.6733 139.842 32.2881Z" fill="black"/>
<path d="M169.19 33.2102C169.766 33.2872 170.055 33.7494 170.055 34.5944H155.812V33.1524C157.12 33.1524 158.061 33.0561 158.639 32.8635C159.638 32.5169 160.139 31.46 160.139 29.693V11.5315H155.815V10.0894H164.176L164.407 15.7974C164.905 14.6443 165.579 13.6067 166.424 12.6846C168.23 10.725 170.288 9.74518 172.595 9.74518C172.941 9.74518 173.305 9.7837 173.69 9.86074C175.457 10.2459 176.343 11.3028 176.343 13.0313C176.343 13.2624 176.304 13.4935 176.227 13.7222C175.919 14.8368 175.19 15.3954 174.037 15.3954C173.805 15.3954 173.574 15.3568 173.346 15.2798C172.806 15.1257 172.231 14.5118 171.615 13.4357C171.075 12.4752 170.481 11.9937 169.828 11.9937C169.251 12.0322 168.54 12.4559 167.695 13.2624C165.543 15.3761 164.467 18.1831 164.467 21.6811V33.1548H168.618C168.844 33.1548 169.036 33.1741 169.19 33.2102Z" fill="black"/>
<path d="M177.783 10.0894H181.82V4.6126L186.144 3.40167V10.0894H195.08V11.5315H186.144V29.0598C186.182 31.9415 187.239 33.422 189.314 33.4991C191.158 33.2294 192.562 31.5009 193.522 28.3087L195.08 28.5976C195.08 28.6361 195.08 28.6746 195.08 28.7132C194.196 33.0561 191.986 35.2276 188.45 35.2276C184.3 35.0735 182.087 32.5939 181.82 27.7887V11.5291H177.783V10.0894Z" fill="black"/>
<defs>
<linearGradient id="paint0_linear_37_2117" x1="98.6772" y1="-2.05872" x2="98.6772" y2="46.5108" gradientUnits="userSpaceOnUse">
<stop stop-color="#FCB531"/>
<stop offset="1" stop-color="#F15F3A"/>
</linearGradient>
<linearGradient id="paint1_linear_37_2117" x1="108.508" y1="32.2096" x2="92.1576" y2="40.528" gradientUnits="userSpaceOnUse">
<stop stop-color="#FCB531"/>
<stop offset="1" stop-color="#F15F3A" stop-opacity="0"/>
</linearGradient>
</defs>
</svg>
