<svg width="88" height="74" viewBox="0 0 88 74" fill="none" xmlns="http://www.w3.org/2000/svg">
<path d="M58.9091 3.45459H3V51.9091H58.9091V3.45459Z" stroke="#E73A66" stroke-width="5" stroke-linecap="round" stroke-linejoin="round"/>
<path d="M58.9092 22.0911H73.8183L85.0001 33.2729V51.9092H58.9092V22.0911Z" stroke="#E73A66" stroke-width="5" stroke-linecap="round" stroke-linejoin="round"/>
<path d="M19.7728 70.5455C24.9191 70.5455 29.091 66.3737 29.091 61.2274C29.091 56.0811 24.9191 51.9092 19.7728 51.9092C14.6265 51.9092 10.4546 56.0811 10.4546 61.2274C10.4546 66.3737 14.6265 70.5455 19.7728 70.5455Z" stroke="#E73A66" stroke-width="5" stroke-linecap="round" stroke-linejoin="round"/>
<path d="M68.2274 70.5455C73.3737 70.5455 77.5455 66.3737 77.5455 61.2274C77.5455 56.0811 73.3737 51.9092 68.2274 51.9092C63.0811 51.9092 58.9092 56.0811 58.9092 61.2274C58.9092 66.3737 63.0811 70.5455 68.2274 70.5455Z" stroke="#E73A66" stroke-width="5" stroke-linecap="round" stroke-linejoin="round"/>
</svg>
